<svg width="24" height="24" xmlns="http://www.w3.org/2000/svg" xmlns:xlink="http://www.w3.org/1999/xlink"><defs><path d="M3.43 3.02H1.38c-.5 0-.9.44-.9.93 0 .5.4 1.04.9 1.04h2.05v1.84c0 .5.45.9.95.9.5 0 .95-.4.95-.9V4.99h2.02c.5 0 .9-.54.9-1.04s-.4-.93-.9-.93H5.33V.95c0-.5-.45-.9-.95-.9-.5 0-.95.4-.95.9v2.07z" id="a"/></defs><g fill="none" fill-rule="evenodd" opacity=".5"><path d="M11.3 14.23c1 0 1.81-.79 1.81-1.77s-.8-1.77-1.8-1.77-1.81.8-1.81 1.77c0 .98.8 1.77 1.8 1.77" fill="#697178"/><path d="M18.12 18.51l-3-3.12a1.08 1.08 0 0 0-1.57 0l-1.79 1.86-2.04 2.12a.4.4 0 0 1-.59 0 .44.44 0 0 1 0-.6l2.05-2.13-4.24-4.4a1.08 1.08 0 0 0-1.58 0l-3.48 3.61v-9.9h16.24v12.56zM20 7.41v15.44c0 .63-.5 1.15-1.11 1.15H1.1C.5 24 0 23.48 0 22.85V5.15C0 4.52.5 4 1.11 4h15.86-1.93c-.5 0-.79.48-.79.98s.3.98.79.98h3.08v2.91c0 .5.43.9.92.9.5 0 .96-.4.96-.9V7.42z" fill="#697178"/><g transform="translate(14.68 1)" fill-rule="nonzero"><use fill="#697178" fill-rule="evenodd" xlink:href="#a"/><path stroke="#FFF" d="M2.93 2.52V.95c0-.77.67-1.4 1.45-1.4.77 0 1.45.63 1.45 1.4v1.57h1.52c.77 0 1.4.66 1.4 1.43 0 .78-.63 1.54-1.4 1.54H5.83v1.34c0 .77-.68 1.4-1.45 1.4-.78 0-1.45-.63-1.45-1.4V5.49H1.38c-.78 0-1.4-.76-1.4-1.54 0-.77.63-1.43 1.4-1.43h1.55z"/></g></g></svg>